<svg xmlns="http://www.w3.org/2000/svg" version="1.1" x="0" y="0" viewBox="0 0 512 512" enable-background="new 0 0 512 512" xml:space="preserve"><polygon points="164 191 164 359 259.5 394 356 359 356 191 260.5 175 "/><polygon fill="#FFFFFF" points="175.3 201.7 175.3 350.5 259.8 381.5 345.3 350.5 345.3 201.7 260.7 187.5 "/><path d="M164 374v55l88 51v-71L164 374zM241 466l-68.1-39.5V384l68.1 27.1V466zM99 196v138l53 20V191L99 196zM144.1 338.2l-37.6-16.3V209.6l37.6-4.1V338.2zM368 191v163l53-20V196L368 191zM375.9 205.5l37.6 4.1v112.3l-37.6 16.3V205.5zM268 409v71l88-51v-55L268 409zM279 411.1l68.1-27.1v42.5L279 466V411.1zM260.5 31L175 71v104l85.5-14 83.5 14V71L260.5 31zM335.5 161l-75.1-11.4L183.5 161V76.5L260.4 44l75.1 32.5V161z"/></svg>