<?xml version="1.0" encoding="utf-8"?>
<!-- Generator: Adobe Illustrator 17.1.0, SVG Export Plug-In . SVG Version: 6.00 Build 0)  -->
<!DOCTYPE svg PUBLIC "-//W3C//DTD SVG 1.1//EN" "http://www.w3.org/Graphics/SVG/1.1/DTD/svg11.dtd">
<svg version="1.1" id="Layer_1" xmlns="http://www.w3.org/2000/svg" xmlns:xlink="http://www.w3.org/1999/xlink" x="0px" y="0px"
	 viewBox="0 0 2000 2000" enable-background="new 0 0 2000 2000" xml:space="preserve">
<path fill="#FFFFFF" d="M1354.4,734.6v-0.4l-41.8-7v-311L1004.9,294L689.9,416.3v310.8l-43,7.1v0.4l-191.3,18v508.5l190.3,71.8
	v185.1l353.8,187.1v0.9l0.8-0.4l0.8,0.4v-0.9l353.8-187.1V1333l190.4-71.8V752.6L1354.4,734.6z M1273,1130.6l-95.2,35.9v92.6
	l-176.9,93.5v0.4l-0.4-0.2l-0.4,0.2v-0.4l-176.9-93.5v-92.6l-95.2-35.9V876.3l95.7-9v-0.2l21.5-3.6V708.1l157.5-61.1l153.8,61.1
	v155.5l20.9,3.5v0.2l95.5,9V1130.6z"/>
</svg>
